HIERARCHY
ROOT Hips
{
	OFFSET 0.00 0.00 0.00
	CHANNELS 6 Xposition Yposition Zposition Xrotation Yrotation Zrotation
	JOINT Spine
	{
		OFFSET 0.00000 1.15266 1.72900
		CHANNELS 3 Xrotation Yrotation Zrotation
		JOINT Spine1
		{
			OFFSET 0.00000 0.40032 2.27031
			CHANNELS 3 Xrotation Yrotation Zrotation
			JOINT Spine2
			{
				OFFSET 0.00000 0.20092 2.29656
				CHANNELS 3 Xrotation Yrotation Zrotation
				JOINT Spine3
				{
					OFFSET 0.00000 0.00000 2.30533
					CHANNELS 3 Xrotation Yrotation Zrotation
					JOINT Neck
					{
						OFFSET 0.00000 -0.86449 6.05149
						CHANNELS 3 Xrotation Yrotation Zrotation
						JOINT Head
						{
							OFFSET 0.00000 -0.55043 3.12167
							CHANNELS 3 Xrotation Yrotation Zrotation
							End Site
							{
								OFFSET 0.00000 0.00000 3.73175
							}
						}
					}
					JOINT RightShoulder
					{
						OFFSET -0.78828 -1.31380 4.25672
						CHANNELS 3 Xrotation Yrotation Zrotation
						JOINT RightArm
						{
							OFFSET -3.91513 0.00000 0.00000
							CHANNELS 3 Xrotation Yrotation Zrotation
							JOINT RightForeArm
							{
								OFFSET -6.91491 0.00000 0.00000
								CHANNELS 3 Xrotation Yrotation Zrotation
								JOINT RightHand
								{
									OFFSET -6.09622 0.00000 0.00000
									CHANNELS 3 Xrotation Yrotation Zrotation
									JOINT RightHandEnd
									{
										OFFSET -1.74995 0.00000 0.00000
										CHANNELS 3 Xrotation Yrotation Zrotation
										End Site
										{
											OFFSET -1.74995 0.00000 0.00000
										}
									}
									JOINT RightHandThumb1
									{
										OFFSET -0.69998 -1.16663 -0.46665
										CHANNELS 3 Yrotation Xrotation Zrotation
										End Site
										{
											OFFSET -1.69032 -0.45292 0.00000
										}
									}
								}
							}
						}
					}
					JOINT LeftShoulder
					{
						OFFSET 0.78828 -1.31380 4.25672
						CHANNELS 3 Xrotation Yrotation Zrotation
						JOINT LeftArm
						{
							OFFSET 3.91513 0.00000 0.00000
							CHANNELS 3 Xrotation Yrotation Zrotation
							JOINT LeftForeArm
							{
								OFFSET 6.91491 0.00000 0.00000
								CHANNELS 3 Xrotation Yrotation Zrotation
								JOINT LeftHand
								{
									OFFSET 6.09622 0.00000 0.00000
									CHANNELS 3 Xrotation Yrotation Zrotation
									JOINT LeftHandEnd
									{
										OFFSET 1.74995 0.00000 0.00000
										CHANNELS 3 Xrotation Yrotation Zrotation
										End Site
										{
											OFFSET 1.74995 0.00000 0.00000
										}
									}
									JOINT LeftHandThumb1
									{
										OFFSET 0.69998 -1.16663 -0.46665
										CHANNELS 3 Yrotation Xrotation Zrotation
										End Site
										{
											OFFSET 1.69032 -0.45292 0.00000
										}
									}
								}
							}
						}
					}
				}
			}
		}
	}
	JOINT RightUpLeg
	{
		OFFSET -2.33857 0.00000 -0.68318
		CHANNELS 3 Xrotation Yrotation Zrotation
		JOINT RightLeg
		{
			OFFSET 0.00000 0.00000 -10.74496
			CHANNELS 3 Xrotation Yrotation Zrotation
			JOINT RightFoot
			{
				OFFSET 0.00000 0.00000 -10.93085
				CHANNELS 3 Xrotation Yrotation Zrotation
				JOINT RightToeBase
				{
					OFFSET 0.00000 -4.08727 -1.48765
					CHANNELS 3 Xrotation Yrotation Zrotation
					End Site
					{
						OFFSET 0.00000 -1.89187 -0.00000
					}
				}
			}
		}
	}
	JOINT LeftUpLeg
	{
		OFFSET 2.33857 0.00000 -0.68318
		CHANNELS 3 Xrotation Yrotation Zrotation
		JOINT LeftLeg
		{
			OFFSET 0.00000 0.00000 -10.74496
			CHANNELS 3 Xrotation Yrotation Zrotation
			JOINT LeftFoot
			{
				OFFSET 0.00000 0.00000 -10.93085
				CHANNELS 3 Xrotation Yrotation Zrotation
				JOINT LeftToeBase
				{
					OFFSET 0.00000 -4.08727 -1.48765
					CHANNELS 3 Xrotation Yrotation Zrotation
					End Site
					{
						OFFSET 0.00000 -1.89187 -0.00000
					}
				}
			}
		}
	}
}
MOTION
Frames: 12
Frame Time:	0.04
 -0.6512 -1.2733 24.9479 -6.1010 3.6553 171.1333 2.5419 -0.9174 -0.3152 0.6916 -1.0767 -0.0769 1.8081 2.2258 3.6426 -1.3852 1.6222 -0.6649 -8.1735 4.6383 -8.8050 3.8170 -1.2224 -13.4426 -6.6407 2.4569 -5.6484 -6.5642 -1.2508 4.1697 0.0000 0.0000 19.3572 -5.2907 4.7375 -6.4255 0.0000 0.0000 -0.0000 -0.0000 -0.0000 -0.0000 -6.1465 -1.3395 2.4986 -15.3072 7.6134 -11.0517 -0.0000 0.0000 3.0022 1.1116 1.7376 3.3491 0.0000 0.0000 -0.0000 0.0000 0.0000 0.0000 -16.1489 -0.6871 -3.5551 15.8589 0.0000 0.0000 -6.7643 3.1722 11.1537 4.9165 0.0000 0.0000 -10.2459 -0.0004 10.9228 5.1867 0.0000 0.0000 -3.8733 5.8037 -10.2221 -2.8945 0.0000 -0.0000
 -0.5960 -1.5079 24.8621 -6.5878 3.2090 173.6975 2.8200 -1.9752 -0.3451 0.7552 -1.2517 -0.1596 3.2107 2.3467 2.6182 -1.5378 2.1679 -1.2307 -10.9700 4.7045 -5.7538 3.4146 -1.8147 -10.2894 -5.7097 1.4470 -3.3063 -8.1580 -4.2430 2.0104 0.0000 0.0000 19.6295 -8.7329 5.6810 -2.2914 0.0000 -0.0000 0.0000 -0.0000 -0.0000 -0.0000 -5.0556 -0.1315 2.0449 -16.6188 10.4960 -11.9401 -0.0000 0.0000 3.2741 -2.3239 -0.9938 -0.8251 -0.0000 0.0000 -0.0000 -0.0000 -0.0000 0.0000 -18.1088 -0.9212 -4.1110 18.0950 0.0000 0.0000 -7.2940 3.2043 9.0306 4.6685 0.0000 0.0000 -16.0296 -1.8230 13.8744 14.3660 0.0000 0.0000 -8.0853 5.4144 -8.9409 -2.6704 0.0000 -0.0000
 -0.5379 -1.5832 24.8310 -6.2556 2.7587 174.6715 3.1018 -2.3539 -0.2474 0.7972 -1.3309 -0.1785 4.1595 2.0400 2.0807 -1.6120 2.2062 -1.2195 -12.7913 4.4868 -2.9503 3.1353 -1.6759 -6.3956 -4.8417 -0.9724 -1.7590 -13.8963 -4.3687 0.6283 0.0000 0.0000 29.4406 -10.6536 13.5564 5.4099 0.0000 -0.0000 0.0000 0.0000 -0.0000 0.0000 -4.4264 0.1144 1.0538 -14.2597 10.9090 -12.4076 -0.0000 0.0000 2.6248 -4.7868 -6.2494 -6.9108 -0.0000 -0.0000 -0.0000 0.0000 0.0000 0.0000 -18.1181 -1.4150 -3.4425 18.6698 0.0000 0.0000 -7.3995 2.5989 7.2598 4.6855 0.0000 0.0000 -19.5633 -5.6696 16.7575 21.0846 0.0000 0.0000 -10.6071 0.1889 -2.1690 -2.1553 0.0000 -0.0000
 -0.5961 -1.4702 24.8499 -5.3659 3.9853 172.9280 3.1407 -1.5950 -0.2522 0.8333 -0.8295 -0.0748 4.1093 2.0866 2.5772 -1.6977 1.9665 -0.8458 -12.7992 3.6194 -0.3461 3.3322 -1.5380 -2.5815 -3.4604 -1.1345 -1.0522 -19.3578 -4.4088 2.6780 -0.0000 0.0001 49.3015 -9.3789 17.6336 11.0579 -0.0000 0.0000 0.0000 -0.0000 0.0000 0.0000 -4.3552 -1.1753 0.3187 -14.5304 8.4906 -11.2669 -0.0000 0.0000 1.8968 -6.2105 -9.9548 -6.6272 -0.0000 -0.0000 -0.0000 -0.0000 -0.0000 0.0000 -17.9676 -0.2127 -2.6082 20.0452 0.0000 0.0000 -8.0610 2.0407 8.4179 4.5320 0.0000 0.0000 -18.0704 -9.9019 18.5189 18.9324 0.0000 0.0000 -6.9662 -3.2905 -1.5407 -3.2114 0.0000 -0.0000
 -0.7532 -1.2751 24.8620 -4.4843 4.5633 170.1342 3.1845 -2.1381 -0.0596 0.8578 -0.6093 0.0685 3.4434 2.5845 5.0734 -1.6672 1.9566 -0.2469 -11.5558 3.4795 1.3847 3.0364 -1.8519 -0.5095 -3.5831 3.2078 -0.7177 -22.6456 -5.9686 5.1899 -0.0000 0.0001 72.5808 -14.0867 16.1725 14.7237 -0.0000 -0.0000 0.0000 0.0000 -0.0000 -0.0000 -5.1313 -3.9805 0.5292 -15.6944 6.6601 -13.4644 -0.0000 0.0000 2.8838 -5.1519 -11.7945 -4.5688 0.0000 0.0000 -0.0000 0.0000 0.0000 0.0000 -17.7871 0.6278 -1.0150 21.7934 0.0000 0.0000 -9.1400 -1.8830 10.4493 5.7443 0.0000 0.0000 -15.1613 -16.3635 14.9442 14.4874 0.0000 0.0000 -0.8404 -1.9562 -3.1997 -3.0579 0.0000 -0.0000
 -1.0120 -1.0458 24.8440 -3.5180 5.4801 168.9360 3.5263 -2.1420 0.0559 1.0162 -0.0573 0.2411 1.9839 2.8466 7.6936 -1.6253 1.6090 0.4690 -9.3325 3.5192 1.5640 3.1725 -1.8500 -0.2315 -5.3486 10.0493 -0.4062 -24.9593 -8.3691 9.5477 -0.0000 0.0001 92.4711 -16.7138 13.8672 15.3439 -0.0000 -0.0000 -0.0000 -0.0000 -0.0000 0.0000 -6.0776 -8.3685 0.4664 -17.6467 4.9168 -18.8516 -0.0000 0.0000 4.7632 -4.7031 -13.6527 -2.7199 -0.0000 0.0000 -0.0000 0.0000 0.0000 0.0000 -18.1745 2.3911 0.4643 24.8872 0.0000 0.0000 -10.8369 -6.1847 11.1951 6.7513 0.0000 0.0000 -13.3508 -23.6373 9.7586 11.9184 0.0000 0.0000 11.0736 0.2626 -6.7690 -3.9515 0.0000 -0.0000
 -1.4899 -0.7614 24.7113 -1.9940 7.6139 168.4542 3.7112 -1.3921 0.0038 1.0999 0.5644 0.4243 1.4025 3.4138 10.1849 -1.3725 1.6189 0.9440 -7.4746 3.9485 1.2649 4.4069 -1.9062 -0.9460 -6.6649 17.2994 0.2738 -27.4956 -10.5615 16.3439 -0.0001 0.0001 102.9750 -18.6279 11.4453 14.6491 0.0000 0.0000 0.0000 0.0000 -0.0000 -0.0000 -5.6402 -12.3346 0.3250 -19.1760 -0.4861 -24.3459 -0.0000 0.0000 4.1275 -6.9105 -17.5612 -2.8833 0.0000 0.0000 -0.0000 -0.0000 -0.0000 0.0000 -19.8381 5.8538 2.4579 30.8936 0.0000 0.0000 -13.9935 -8.4562 10.8895 7.0716 0.0000 0.0000 -11.9663 -29.0896 9.8388 11.9142 0.0000 0.0000 16.7077 -0.1720 -6.6749 -3.9041 0.0000 -0.0000
 -2.1554 -0.4146 24.4519 -0.3420 8.8188 169.0611 3.7879 -1.2546 -0.1169 1.0689 0.7716 0.4643 1.5537 3.7280 11.2577 -0.9306 1.9164 0.9140 -5.7183 4.3598 1.3727 5.6126 -2.1997 -1.4677 -7.5219 21.2566 0.0998 -28.1135 -13.0964 25.6424 -0.0001 0.0001 104.6960 -18.0582 11.5188 14.4758 0.0000 0.0000 0.0000 -0.0000 0.0000 -0.0000 -5.6127 -16.1895 2.0475 -22.5921 -3.1614 -30.5219 -0.0000 0.0000 4.3388 -7.6796 -19.5221 -0.9586 -0.0000 0.0000 0.0000 -0.0000 -0.0000 -0.0000 -20.9990 9.6592 2.5106 37.0513 0.0000 0.0000 -17.3130 -11.6029 11.6953 7.5237 0.0000 0.0000 -10.7598 -33.2226 10.3641 11.8696 0.0000 0.0000 18.7281 -1.0995 -6.5917 -4.1084 0.0000 -0.0000
 -2.9765 -0.0213 24.1516 0.7989 9.0338 170.7792 3.5171 -1.3916 -0.2099 1.0175 0.8942 0.4304 1.7063 3.4600 11.0318 -0.5780 1.8825 0.8766 -3.8894 4.3360 1.4920 6.8080 -2.4422 -1.3736 -8.9625 21.4654 0.0387 -25.6018 -15.0704 31.9599 -0.0001 0.0001 105.9703 -16.4109 11.0905 14.2444 0.0000 0.0000 -0.0000 0.0000 -0.0000 0.0000 -6.2961 -18.7523 2.6983 -23.7451 -4.3600 -34.3526 -0.0000 0.0000 4.4891 -6.1870 -19.8027 -0.2150 -0.0000 -0.0000 -0.0000 0.0000 0.0000 0.0000 -21.1465 12.4763 3.5120 41.5643 0.0000 0.0000 -20.6132 -14.1881 10.0380 7.7694 0.0000 0.0000 -10.7941 -35.4938 10.4323 11.9192 0.0000 0.0000 22.1111 0.0126 -7.6856 -3.8457 0.0000 -0.0000
 -4.0435 0.3805 23.8278 1.9288 9.1848 172.5032 3.3191 -1.3276 -0.2306 0.9381 0.7737 0.3891 2.1051 3.2662 10.2684 -0.1919 1.6940 0.8168 -2.5489 3.7294 1.6534 7.8962 -2.5348 -1.0244 -9.9128 20.6597 -0.0747 -22.8812 -15.3962 33.3551 -0.0001 0.0001 109.9163 -13.7524 10.1798 14.1607 -0.0000 -0.0000 -0.0000 -0.0000 -0.0000 0.0000 -6.5094 -20.0372 2.7880 -23.5719 -4.8838 -35.7760 -0.0000 0.0000 4.3599 -5.3645 -19.5004 0.5574 -0.0000 -0.0000 -0.0000 0.0000 0.0000 0.0000 -20.6157 15.7966 4.8326 44.8459 0.0000 0.0000 -23.4091 -17.3047 8.2779 7.8549 0.0000 0.0000 -10.7014 -34.3437 9.8177 12.5099 0.0000 0.0000 22.5234 -0.0668 -8.0152 -3.8326 0.0000 -0.0000
 -5.5163 0.8788 23.4936 2.9117 9.6173 172.5371 2.6312 -1.5800 -0.3286 0.6602 0.4084 0.3609 2.4284 3.0187 9.8701 0.2798 1.5867 0.8310 -0.5194 3.6551 1.6265 9.0858 -2.5777 -0.7433 -9.8703 20.2279 -0.3950 -20.4510 -15.5898 33.6030 -0.0001 0.0001 113.1233 -11.9173 10.0654 13.8979 0.0000 -0.0000 -0.0000 0.0000 -0.0000 0.0000 -6.6324 -19.9149 3.0081 -23.1448 -2.8031 -35.8005 -0.0000 0.0000 4.4782 -5.1216 -19.4852 0.5632 0.0000 -0.0000 0.0000 0.0000 0.0000 0.0000 -20.0126 20.4761 6.5815 46.1910 0.0000 0.0000 -24.5745 -20.0188 8.0400 7.3557 0.0000 0.0000 -7.8053 -30.3855 10.5496 11.5568 0.0000 0.0000 23.0333 1.2671 -9.4218 -3.6229 0.0000 -0.0000
 -7.3597 1.3779 22.9791 3.3254 9.3381 170.1407 1.9092 -1.9307 -0.2745 0.4321 -0.7239 0.2813 2.4019 2.3495 9.9120 0.4470 1.2384 1.0099 0.7500 2.9473 1.4841 10.8094 -2.5017 -1.3452 -10.2077 18.1345 -0.2789 -18.8414 -16.1158 33.6380 -0.0001 0.0001 115.8383 -11.8942 10.3328 14.9317 -0.0000 -0.0000 0.0000 0.0000 -0.0000 0.0000 -7.0704 -16.9383 3.4048 -20.8694 -2.1773 -34.3933 -0.0000 0.0000 4.1305 -5.1559 -21.2942 0.5701 -0.0000 0.0000 0.0000 -0.0000 -0.0000 -0.0000 -21.2733 25.3361 9.2467 46.5416 0.0000 0.0000 -23.9884 -23.1522 9.9766 6.5172 0.0000 0.0000 -4.2172 -25.7378 11.2481 11.1855 0.0000 0.0000 27.1980 3.4281 -9.8321 -3.5334 0.0000 -0.0000
